<svg id="Layer_1" data-name="Layer 1" xmlns="http://www.w3.org/2000/svg" viewBox="0 0 245.72 250"><defs><style>.cls-1{fill:#010101;}.cls-2{fill:#fff;}.cls-3{fill:#ffcb06;}.cls-4{fill:#6b8e3c;}.cls-5{fill:#f5d64e;}.cls-6{fill:#eecd4d;}.cls-7{fill:#f1ce44;}.cls-8{fill:#f2d34a;}.cls-9{fill:#f2d14a;}.cls-10{fill:#f0ce4a;}.cls-11{fill:#f1d350;}.cls-12{fill:#f0cd47;}.cls-13{fill:#f1cf3d;}.cls-14{fill:#f0cf49;}.cls-15{fill:#eccf4d;}.cls-16{fill:#f6dc6b;}.cls-17{fill:#f9d645;}.cls-18{fill:#f3d672;}.cls-19{fill:#f59ea8;}.cls-20{fill:#ecb1b9;}.cls-21{fill:#060404;}.cls-22{fill:#090604;}.cls-23{fill:#070505;}.cls-24{fill:#050404;}.cls-25{fill:#040303;}.cls-26{fill:#070605;}.cls-27{fill:#080604;}.cls-28{fill:#0a0704;}.cls-29{fill:#080505;}.cls-30{fill:#070503;}.cls-31{fill:#f9c911;}.cls-32{fill:#ebc726;}.cls-33{fill:#fddd3c;}.cls-34{fill:#a24d24;}.cls-35{fill:#fdfada;}.cls-36{fill:#fdfadb;}</style></defs><path class="cls-1" d="M30,117a46.44,46.44,0,0,1-6-4.82c-3.11-3.12-2.56-5.91,1.49-7.64A41.71,41.71,0,0,1,32,102.67a4.68,4.68,0,0,0-1.11-1.62,31.7,31.7,0,0,1-4-6.09,7.26,7.26,0,0,1-.6-1.81,3.44,3.44,0,0,1,2.93-4.29,29.81,29.81,0,0,1,6.62-.13c-.75-1.7-1.52-3.34-2.21-5a12.63,12.63,0,0,1-1.19-4.83,2.89,2.89,0,0,1,2.78-3.24,15,15,0,0,1,6.52.77,18.56,18.56,0,0,1,.16-3.75c.08-.51-.26-.71-.52-1a26.39,26.39,0,0,1-3.55-4.34c-1.55-2.65-.64-4.79,2.36-5.48a25.8,25.8,0,0,1,6-.53c.3,0,.76,0,.89-.12.25-.35-.17-.63-.35-.92A38.4,38.4,0,0,1,43.55,54a12.09,12.09,0,0,1-.61-2c-.68-3.25.87-5.3,4.2-5.49a22.92,22.92,0,0,1,3.1.07,11.6,11.6,0,0,1,3.18.73c-.21-1.12-.34-2.14-.59-3.12a17.39,17.39,0,0,1-.44-5c.07-2.19,1.1-3.27,3.28-3.47a13.45,13.45,0,0,1,6.67,1c.87.39,1,.14.92-.68a28,28,0,0,1,.4-6.2c.31-2.06,1.45-2.83,3.52-2.55a21.81,21.81,0,0,1,7,2.69,4.42,4.42,0,0,0,1.65.67,26.19,26.19,0,0,1,1-4.9c1-2.73,2.92-3.47,5.46-2.09a25.16,25.16,0,0,1,4.78,3.93,31.5,31.5,0,0,1,1.17-4.4c.91-2.18,2.52-2.67,4.46-1.33a18.3,18.3,0,0,1,2.41,2.37c-.23-2.44-.36-4.63-.43-6.83a27.73,27.73,0,0,1,.13-4.18,6.73,6.73,0,0,1,4.35-5.8c4.08-1.71,8.67-.66,10.62,2.49A10.69,10.69,0,0,1,111,14.55c.17,1.7.21,3.42.26,5.13,0,.55,0,.93.72,1.07a4,4,0,0,1,2.23,1.73,27.09,27.09,0,0,1,2.32,3.64A41,41,0,0,1,119.23,22a13.76,13.76,0,0,1,2.36-2.52c2-1.58,3.91-1.23,5.18,1a21.2,21.2,0,0,1,1.78,4.91c.08.29.2.58.31.93.79-.88,1.47-1.76,2.27-2.52,2.09-2,4-1.52,5.1,1.13.21.5.37,1,.6,1.62a24.52,24.52,0,0,1,3.59-3.09,7.45,7.45,0,0,1,2.7-1.23,3,3,0,0,1,3.6,2,15.06,15.06,0,0,1,1,4.64c0,.75.12,1,.93.52A15.69,15.69,0,0,1,153.71,27a2.69,2.69,0,0,1,3.57,2.59c.12,1.23.21,2.46.27,3.7,0,.66.21.82.86.51,1.29-.63,2.61-1.19,3.94-1.73a6,6,0,0,1,1.6-.43c2.12-.22,3.05.6,3.12,2.74,0,.91,0,1.83-.06,2.75s-.12,1.73-.19,2.66a30.37,30.37,0,0,1,7.91-1,5.28,5.28,0,0,1,2.28.62,2.43,2.43,0,0,1,1.36,2.22,9.92,9.92,0,0,1-.9,4c-.32.76-.61,1.52-1,2.38,3.88-.53,7.6-1.25,11.4-1.11a6.16,6.16,0,0,1,2.55.52,2.36,2.36,0,0,1,1.41,2.74,13.19,13.19,0,0,1-2.62,5.3l-1.33,1.88a71.64,71.64,0,0,1,10.22-.15,12.67,12.67,0,0,1,3.29.56,2.36,2.36,0,0,1,1.62,3.3,16.71,16.71,0,0,1-2.46,4.2c-.38.55-.77,1.09-1.24,1.74A62.4,62.4,0,0,1,208,68.24c4.05.94,4.8,2.94,2.31,6.28a38.19,38.19,0,0,1-2.51,2.89c-.84.9-1.72,1.76-2.69,2.75,2.23.44,4.39.84,6.55,1.28a13.52,13.52,0,0,1,4.6,1.58q3,1.91,1.16,5a23.86,23.86,0,0,1-5.08,5.2c-1.1.95-2.24,1.87-3.5,2.93l7.64,2.8a16.18,16.18,0,0,1,3.24,1.51c1.94,1.27,2.28,3,1,4.9a23.39,23.39,0,0,1-4.55,4.72c-1.15,1-2.31,1.91-3.49,2.88,2.06,1.25,4.08,2.45,6.07,3.67a23.62,23.62,0,0,1,3.52,2.67c1.87,1.73,1.84,3.74,0,5.48a24.91,24.91,0,0,1-4.93,3.13l-2.25,1.29a48.07,48.07,0,0,1,4.7,3.67,14.88,14.88,0,0,1,2.36,2.53c1.53,2.13,1.27,3.89-.8,5.47a28,28,0,0,1-4.44,2.57c-.77.39-.89.61-.19,1.27a23.32,23.32,0,0,1,4.14,4.94c1.67,2.82.87,5.09-2.18,6.27a50.77,50.77,0,0,1-5.88,1.63l3.24,4.08a17.54,17.54,0,0,1,2.43,3.82,3.34,3.34,0,0,1-1.72,4.68,16.53,16.53,0,0,1-3.59,1.28c-.83.21-1,.37-.5,1.18a28.12,28.12,0,0,1,3.81,7.92c.57,2.28-.58,3.89-2.93,4.2-1.93.25-3.88.13-5.94.19,1.2,2.56,2.26,5.08,3.17,7.65a9.71,9.71,0,0,1,.65,3A3.27,3.27,0,0,1,208.8,199a17.66,17.66,0,0,1-4.53.23h-2.66c.75,1.49,1.52,3,2.24,4.44a8.14,8.14,0,0,1,.69,2.28,3.23,3.23,0,0,1-3,4.05,21.81,21.81,0,0,1-6.55-.4c-.85-.15-.93.11-.83.82a29.33,29.33,0,0,1,.43,5.12c-.07,2.53-1.48,3.71-4,3.37a15.81,15.81,0,0,1-4.86-1.83,49.83,49.83,0,0,1-1.45,5.08c-1.67,4.43-3.74,5.15-7.75,2.68a16,16,0,0,1-2.79-2.05c-.46-.46-.65-.46-1,.14q-1.32,2.28-2.82,4.44c-1.51,2.16-3.54,2.33-5.47.53a12.51,12.51,0,0,1-2.22-2.8c-.29-.48-.44-.67-.89-.11a19.77,19.77,0,0,1-7,5.66,2.18,2.18,0,0,0-.93,1.19,23.89,23.89,0,0,1-5.85,7.77,17.57,17.57,0,0,1-25.39-3.82c-.5-.73-.87-.78-1.68-.51a75.71,75.71,0,0,1-28.15,3.78A73.49,73.49,0,0,1,65,232.27a1.49,1.49,0,0,0-1.34.11,57.78,57.78,0,0,1-13.53,3.78c-7.19,1-13.34-1-18.25-6.39a40,40,0,0,1-9-15.17,13.36,13.36,0,0,1-.23-7.77c1.69-5.75,6.67-8.58,12.68-7.27a14.84,14.84,0,0,1,5.37,2.23c.48.33.69.42,1.05-.2a34.36,34.36,0,0,1,3.62-5c.27-.31.54-.51.07-1a18.61,18.61,0,0,1-5.36-11.31,19.9,19.9,0,0,1,3.46-15.07c.41-.56,1.33-1,1.11-1.66-.16-.45-1.14-.6-1.74-.91-8.09-4.32-13.53-10.76-15.48-19.83a26,26,0,0,1,2.17-16.4c.44-1,.32-1.42-.63-1.91a24.78,24.78,0,0,1-4.59-2.79c-2.55-2.12-2.44-4.24.31-6A32.38,32.38,0,0,1,30,117Z"/><path class="cls-2" d="M131.34,169.8c-5.09.12-10.69-.88-16.28-2a24.66,24.66,0,0,0-5.35-.48c-.34,0-.66.11-.89-.36-3.48-7.11-9.35-11.21-16.87-13.1-10.21-2.57-20.09-2-29.27,3.69-2.88,1.77-5.72,3.67-7.25,6.9-.2.42-.48.28-.79.21a9.32,9.32,0,0,0-6.2.5,1.07,1.07,0,0,1-.91,0c-5.82-2.34-10.66-5.92-13.92-11.36-4.51-7.53-4.27-15.27-.7-23.06a34.65,34.65,0,0,1,7.48-10.43,4.81,4.81,0,0,1,.51-.5c2.83-2.13,3.87-5,4.41-8.48,1.57-10.22,5.17-19.66,11.81-27.76a34.6,34.6,0,0,1,7.27-6.71,1.46,1.46,0,0,1,1.9-.06,13.16,13.16,0,0,0,6.07,2.32,10.4,10.4,0,0,0,6-1.21c.31-.17.51-.39.92-.1,2.5,1.78,5.19,1.77,8,.82a12,12,0,0,0,3.79-2c.5-.41.69-.33,1.08.16,1.88,2.35,4.08,2.92,6.92,1.87A14.54,14.54,0,0,0,104,75.58c.36-.35.59-.52.84.06,1.8,4.29,8,4.77,11.46,1.25.49-.5.65-.59,1.2,0a8,8,0,0,0,10.57.5,2,2,0,0,1,2.45-.24c.77.42,1.54.84,2.33,1.19,1.6.7,2.3.23,2.44-1.5A31.22,31.22,0,0,1,140,61.89c3.94-6,9.42-9.14,16.68-8.39S168.85,58.39,171.63,65c4.72,11.18-.58,24.45-11.79,29.85a32.61,32.61,0,0,1-3.54,1.41c-1.32.47-1.57,1.09-1,2.38a73.27,73.27,0,0,1,5.37,18.22,5.23,5.23,0,0,0,1.86,3,29.52,29.52,0,0,1,7.39,11c3.38,9.25,1.78,17.72-4.25,25.46-4.46,5.72-10.44,9-17.19,11.1A54.91,54.91,0,0,1,131.34,169.8Z"/><path class="cls-2" d="M26.28,206.91c1-3.25,4.42-5,8.22-4.19a13.37,13.37,0,0,1,8,4.91c.6.77,1.32,1.19,2.27.58.76-.48.84-1.39.25-2.41a3.06,3.06,0,0,0-.38-.6c-.59-.61-.49-1.16-.07-1.87a22.67,22.67,0,0,1,5.86-7c.45.52.4,1.18.57,1.75,3.34,11.68,9.53,21.33,20.06,27.78a31.43,31.43,0,0,0,19.39,4.86,22.66,22.66,0,0,0,16.6-9.52c3.34-4.47,5-9.63,6-15.05a53.7,53.7,0,0,0,.82-7.59c0-.76.23-.91,1-.68A45,45,0,0,0,133,200c5.16-.59,10.12-1.78,14.46-4.83a11.52,11.52,0,0,0,1-.79,1.65,1.65,0,0,0,.32-2.42,1.51,1.51,0,0,0-2.4-.1c-3.54,3-7.75,4.2-12.19,4.78A42.57,42.57,0,0,1,116.59,195a30.63,30.63,0,0,1-11.59-6,11.18,11.18,0,0,1-2.92-3.89,3.8,3.8,0,0,1-.22-3.43,4.19,4.19,0,0,0,0-2.48c-.75-5.08,2-8.44,7.13-8.75a33.17,33.17,0,0,1,8.76,1.08c11.64,2.34,23.13,2.12,34.38-2.06a36.71,36.71,0,0,0,8.52-4.26c.63-.45.86-.49,1.22.31a70.77,70.77,0,0,1,4.68,15.34,64.9,64.9,0,0,1,1.21,15.1c-.37,8.5-2.15,16.63-6.72,24a28.86,28.86,0,0,1-5.27,6.19c.5-2.06,1.07-3.85,1.36-5.7a24.65,24.65,0,0,0-.16-9.26c-1.24-5.4-6.84-8.8-11-9.37-5.76-.77-10.3,1.39-13.93,5.72a20.08,20.08,0,0,0-4.83,11.59,5.68,5.68,0,0,0,0,.59,1.7,1.7,0,0,0,1.72,1.77c1.08,0,1.42-.74,1.53-1.64a19.88,19.88,0,0,1,1.95-7,17,17,0,0,1,4.24-5.43,11.23,11.23,0,0,1,14.86.46,8.56,8.56,0,0,1,2.64,6A30.6,30.6,0,0,1,152.31,226a34.82,34.82,0,0,1-4.2,8.27c-6.33,9.26-19.29,6.51-23.46-.72-.16-.28-.29-.57-.43-.85-.77-1.55-1.41-1.78-3.06-1.19a74,74,0,0,1-31.91,4,66.12,66.12,0,0,1-22.68-6.2,4.93,4.93,0,0,0-4.32-.06C57,231.34,51.71,233.14,46,233a11.76,11.76,0,0,1-5.3-1.21c-.1-.36.22-.5.39-.73a4.81,4.81,0,0,0,1-4.14c-1.5-6.78-4.05-13.05-8.93-18.17a8.66,8.66,0,0,0-1.88-1.47c-1.6-.92-3.19-1.22-4.73.15C26.17,207.39,26.16,207.18,26.28,206.91Z"/><path class="cls-3" d="M108,195.22l2.24,1.12c.1.29.47.45.39.83-.26,5.91-1,11.72-3.44,17.19a22.43,22.43,0,0,1-7.25,9,22.86,22.86,0,0,1-6.49,3.21,21.17,21.17,0,0,1-9.66.37c-1.37-.21-2.69-.64-4.07-.82h0c-.37-.45-1-.43-1.43-.67a32,32,0,0,1-11-6.61,11.38,11.38,0,0,0-1-.86,42.39,42.39,0,0,1-7.56-10.22,48.44,48.44,0,0,1-4.54-12.25,3.42,3.42,0,0,1,0-.71c.31-1.44-.31-2.81-.36-4.22s.22-1.93,1.73-2.24c.55-.11,1.07-.29,1.25-.94a2,2,0,0,1,.66-1,8.47,8.47,0,0,0,2-2.89.75.75,0,0,1,.28-.18c.29-.07.52.21.77.2.93,0,1.3.1,1.06,1.26a2.76,2.76,0,0,0,.94,2.13.71.71,0,0,1,.15.3c.11,1.13.93,1.92,1.39,2.89.12.16.28.38.47.25.61-.42,1.37-.44,2-.79,1.13-.59,1.25-1.76,1.37-2.77.42-3.26.64-6.54,1-9.81.22-1.85.56-3.68.84-5.52a4.62,4.62,0,0,0-.85-3.46c-.27-.9-.8-1-1.63-.67s-1.36.83-2.28.34a2.18,2.18,0,0,1-.31,2,1.33,1.33,0,0,1-.21.26c-.78.38-.56,1.15-.67,1.78-.16,1-.16.92-1.15.59-1.3-.43-1.51-1.21-1.58-2.45a3,3,0,0,0-1.6-2.33c-1.52-1.58-1.55-1.61.07-3.13A29.86,29.86,0,0,1,72.93,157a32.34,32.34,0,0,1,9-1,38,38,0,0,1,11.29,2,22.32,22.32,0,0,1,9.8,6.29c.61.81,1.22,1.62,1.75,2.48.2.34.63.64.39,1.15-3.67,1.57-6.15,4.12-6.69,8.23a19.52,19.52,0,0,0,0,3.42,3,3,0,0,1-.19,1.81,5.1,5.1,0,0,0,0,3.59c1.38,4.37,4.37,7.36,8.24,9.58C106.94,194.81,107.32,195.31,108,195.22Z"/><path class="cls-4" d="M175.17,216.3c-.93-1.63-1.91-1.71-3-.26a11.69,11.69,0,0,0-.9,2.59c-.71,1.66-1.7,3.18-2.53,4.78a3.9,3.9,0,0,1-.86,1.23c-.37.48-.76.85-1.33.25a6.66,6.66,0,0,1-1.14-1.6c-.26-.73-.86-1.36-.61-2.23l2.76-5.58a22.32,22.32,0,0,0,2.09-6.06,14.58,14.58,0,0,0,.56-2.78.25.25,0,0,1,0-.22,15,15,0,0,0,.65-3.18,18.72,18.72,0,0,0,.42-3.87,51.57,51.57,0,0,0,0-10.54,24.27,24.27,0,0,0-.42-4.34,14.42,14.42,0,0,0-.65-3.44l0-.41a11.06,11.06,0,0,0-.52-2.68,35.91,35.91,0,0,0-.82-3.7,45,45,0,0,0-2-5.9v0a22.19,22.19,0,0,0-1.48-4c-.12-.5-.52-.9-.56-1.43a3.88,3.88,0,0,1,1.18-1.48A11.3,11.3,0,0,0,168,159l.45-.51c.73-.28.89-1.07,1.41-1.54a27.24,27.24,0,0,0,3.55-6.7,23,23,0,0,0,1.43-5.59,5.8,5.8,0,0,0,.25-1.71,24.1,24.1,0,0,0-.18-8.17,28.37,28.37,0,0,0-3.61-9.52h0a3.55,3.55,0,0,0-.76-1.45,23,23,0,0,0-4.37-5.54,6.41,6.41,0,0,1-2.37-4.83,20.66,20.66,0,0,0-.72-3.28,43.24,43.24,0,0,0-1.65-5.78,44.43,44.43,0,0,0-1.64-4.53c-.21-.55-.32-1.07.28-1.46l1.43-.74A18.13,18.13,0,0,0,166.21,95a22.42,22.42,0,0,0,8-9.17,6.13,6.13,0,0,0,.54-1.54.21.21,0,0,1,.06-.21,13.49,13.49,0,0,0,1.63-4.78l.46-2.21a17.84,17.84,0,0,0-.11-8.22,13.34,13.34,0,0,0-1.27-4.17.21.21,0,0,1-.06-.21,18.42,18.42,0,0,0-3.76-6.68,19.79,19.79,0,0,0-10.35-7c-.23-.06-.45-.17-.69,0L157,50.11a31.09,31.09,0,0,0,1.09-4.77,4,4,0,0,0,.07-2.5,3,3,0,0,0-1.93-2,2.73,2.73,0,0,1-.5-.06,3.9,3.9,0,0,0-1.7,0,19.21,19.21,0,0,0-6.77,2.38c-.39.2-.77.41-1.15.62a4.61,4.61,0,0,0-1.11.75l-.25.22a4.25,4.25,0,0,0-1.57,1.89c-.18.44-.37.89.11,1.3a1.17,1.17,0,0,0,1.4.19c2.19-1,4.41-1.94,6.67-2.79a9.55,9.55,0,0,1,2.62-.68c.35.19.21.53.24.82a28.86,28.86,0,0,1-.64,3.58c-.15.5-.33.9-1,.83l-.09,0c0,.16.19.06.2.18a2.35,2.35,0,0,1-1.28.16,1.4,1.4,0,0,0-.7-.07c-.08,0-.17,0-.23,0,.12-.06.21,0,.28.1a21.61,21.61,0,0,0-9.62,4.77c-.56.26-.88.8-1.33,1.18s-.52.93-1,.71-.15-.85-.11-1.3a14,14,0,0,0,.12-3.66,2.72,2.72,0,0,0-1.61-2.33,3.67,3.67,0,0,0-2.66-.23A18.14,18.14,0,0,0,129,51.84c-.69.46-1.38.92-2.07,1.36a1.29,1.29,0,0,0-.5,1.76c.29.68.93.68,1.53.51s1.49-.51,2.23-.77c1.68-.31,3.17-1.19,4.82-1.57a.18.18,0,0,1,.16,0,17.92,17.92,0,0,1-.47,6.52c-.11.58-.26,1.15-.34,1.73s-.22.89-.06,1.35a.66.66,0,0,0,.23.21l.45.47c.26,1.27-.05,1.54-1.44,1.22-3.43-.79-6.68.16-9.92,1.08-.31.09-.56.42-.84.64-.59,1.42-.18,2.09,1.27,2s3-.51,4.48-.66c.67-.07,1.34-.05,2-.08s.8.31.54.89c-.32.73-.87,1.33-1.15,2.07-.49.37-.39,1.14-1,1.44a13.1,13.1,0,0,0-1.66,1.67,6.78,6.78,0,0,1-3.26,2,3.34,3.34,0,0,1-2.25-.1c-.61-.44-1.41-.48-2-1a1.3,1.3,0,0,1-.37-1.76,11.76,11.76,0,0,0,1.31-3.55,11.85,11.85,0,0,0,.57-3.69,2.1,2.1,0,0,0-1-1.9,3.64,3.64,0,0,0-2.43-.76,2,2,0,0,0-1,.05,23.58,23.58,0,0,0-7,3.32,1.23,1.23,0,0,0-.52,1.68c.84,1.19,1.86.53,2.84.28a2.06,2.06,0,0,0,1.1-.36c1-.46,2-.86,3-1.23.37-.14.81-.44,1.14.1.09,1.25-.66,2.28-.92,3.44a1,1,0,0,1-.28.69,6,6,0,0,0-.76,1.92,1.77,1.77,0,0,1-.67,1A3.48,3.48,0,0,0,113.66,75a3.34,3.34,0,0,1-1.92.9,4.16,4.16,0,0,1-4.53-2.81,1,1,0,0,0-.47-.51l-.46-.47c-.77-1-1.69-.6-2.54-.19A10.17,10.17,0,0,0,102,73a19.85,19.85,0,0,1-3.16,1.89c-2.21,1.13-2.68,1-4.38-.64s-2-1.91-4-1c-1.18.36-2.07,1.27-3.22,1.72a8.33,8.33,0,0,1-4,.65,4.65,4.65,0,0,1-3.88-2.9c-.15-.32-.27-.66-.42-1-.46-1-.65-2.15-1.14-3.16a20.4,20.4,0,0,1-1.07-5.36c0-.53-.06-1.13.61-1.39a5.37,5.37,0,0,1,2.23.75,45.77,45.77,0,0,1,6.81,4c.83.58,1.73.93,2.42-.24.27-.28.27-.3,0-.59a6.88,6.88,0,0,0-1.61-1.91,32,32,0,0,0-7.65-4.59,5.14,5.14,0,0,0-5.55.43,2.19,2.19,0,0,0-.91,2.2,28.82,28.82,0,0,0,1.69,9l0,0a12.32,12.32,0,0,0,1.12,3c.4,1.1.29,1.36-.88,1.59a7.47,7.47,0,0,1-5.38-.95A4.91,4.91,0,0,0,68,73.73a26.91,26.91,0,0,1-9.37-11.62c-.16-.53-.33-1.06-.52-1.58-.29-.83,0-1.13.86-.88a64.24,64.24,0,0,1,6.31,2.44c.62.27,1.23.72,2,.39l.29-.1c.4,0,.53-.32.63-.64a3.15,3.15,0,0,0,0-1.26c-.08-.25-.14-.5-.42-.59a20.32,20.32,0,0,0-3.86-2.1c-.2-.38-.9-.41-.72-1a.86.86,0,0,1,1,0c.31.12.63.31.89-.1a1,1,0,0,1,.65-.5c.18-.3.33-.59-.11-.82a1.55,1.55,0,0,1-.38-1.11,25.57,25.57,0,0,1-.87-6.45c0-1.55.58-1.89,2-1.27a10.27,10.27,0,0,0,2.29,1,18.75,18.75,0,0,1,3.77,1.76c.25.12.48.29.73.41a1.14,1.14,0,0,0,1.6-.27c.41-.55.16-1.06-.2-1.52a4.32,4.32,0,0,0-1-.89,31.45,31.45,0,0,0-7.17-3.76,5.38,5.38,0,0,0-3.75,0c-1.38.27-1.49,1.39-1.66,2.47A11.13,11.13,0,0,0,61,49a1.61,1.61,0,0,1,.08.38,20.22,20.22,0,0,0,1.62,6.52c.16.36.46.74.18,1.09s-.65,0-1-.1c-.53-.15-1.07-.24-1.6-.37h0a1.76,1.76,0,0,0-1.05-.45c-4.1-1-5.76,2.4-4.94,5.14a25.6,25.6,0,0,0,5.28,9.21l2.67,3a1.85,1.85,0,0,1,.19.8l-2.53,1.93c-1,.42-1.46,1.36-2.26,2-.7.8-1.4.54-2.1,0a72.45,72.45,0,0,1-6.94-5,5,5,0,0,0-1-.64,44.06,44.06,0,0,1-5.92-6.14c-.79-1-.72-1.07.58-1.3a11.25,11.25,0,0,1,3-.19c1.15.31,2.28-.1,3.42,0a6.62,6.62,0,0,1,1.48-.09c.15,0,.24-.06.08,0l0-.1c1.92-.71,2.24-1.28,1.78-3.1a1,1,0,0,0-.22-.77c-1.4-1.94-2.47-4.09-3.71-6.13h0c-.3-1-.8-1.87-1.06-2.87-.31-1.24-.1-1.52,1.15-1.69.94-.12,1.88.15,2.81,0,1.25.18,2.49.32,3.72.55a3.68,3.68,0,0,0,2.51-.33c.91-.51.74-1.34.57-2.11a61.6,61.6,0,0,1-1.24-7.39c-.11-1.13.07-1.34,1.21-1.28a28.38,28.38,0,0,1,4.29.78c.53.11,1,.42,1.63.24.65.14,1.29.32,1.95.4a1.38,1.38,0,0,0,1.56-.5c.29-.09.19-.38.28-.57a4.69,4.69,0,0,0-.06-1.79c0-1.8,0-3.59,0-5.38.06-1.63.42-1.82,1.91-1.12a16.15,16.15,0,0,0,2.23.83,7.15,7.15,0,0,1,2,1,1.08,1.08,0,0,1,.31,1.27c-.89,2.92-.67,5.91-.49,8.89h.12a.73.73,0,0,0,.08-.09c.06.3.14.61.18.91.12.76.43,1.37,1.27,1.48s1.21-.42,1.54-1c.11-.2.18-.43.27-.64.3-.15.18-.42.16-.63a23.85,23.85,0,0,1,.43-7.1c.18-1.06.49-1.17,1.46-.6a4.79,4.79,0,0,0,1.58.79A24.08,24.08,0,0,1,85.27,41a2.11,2.11,0,0,0,1.37.83,1.39,1.39,0,0,0,1.53-1.58,2,2,0,0,0-.65-1.58h0a3.36,3.36,0,0,0-1-1.22v0a15,15,0,0,0-5.22-4.15,3.28,3.28,0,0,1-1.2-.69c-.46-.46-.36-1.05-.36-1.62.23-.88.32-1.79.53-2.68.13-.55.32-1,1-.91a22,22,0,0,1,5.33,4.72c1.51,1.7,3,.59,3.47-.92.49-1.67.62-3.44,1.25-5.08.21,0,.38-.14.59-.09.89.57,1.26,1.58,1.9,2.36.35.42-.09.85-.32,1.17a31.59,31.59,0,0,0-2,3.57A5.38,5.38,0,0,0,91,34.55h0a3.39,3.39,0,0,0-.47,1,4.49,4.49,0,0,0-.5,3c.86,1.23,1.7,1.23,2.5,0,.38-.59.67-1.23,1-1.85.77-1.46,1.54-2.92,2.39-4.33,1.65-2,1.65-2,3.26,0,.32.39.5.89,1,1.17a8.35,8.35,0,0,1,1.42,2.94c.53,1.92,1.46,2.21,3,.89.41-.11.51-.5.65-.8a50,50,0,0,1,2.47-4.77c.37-.49.71-.21,1,.06A7.47,7.47,0,0,1,109.86,34c.53,1.31,1.1,2.59,1.74,3.85l.12.27a2.49,2.49,0,0,0,.55,1.62c1.46,1.07,2.41.65,2.7-1.18a16.1,16.1,0,0,0-1.19-4.41,12.45,12.45,0,0,0-1-2.37c-.19-.26-.26-.61-.53-.84v0c-.21-1-1-1.72-1.3-2.69a1.39,1.39,0,0,1,0-.88c.23-.6.17-1.57.86-1.67s.77.93,1.19,1.4.44.82.78,1.15h0a4.32,4.32,0,0,0,1,1.9c1.24,1.49,2.78,1.46,4-.08.17-.22.34-.43.5-.65a21.6,21.6,0,0,0,2.16-3.57h0c.6-.63,1-1.44,1.56-2.05.29-.3.53-.7,1-.72a.64.64,0,0,1,.29.16,9.3,9.3,0,0,1,.78,2.62c.17.39.07.84.31,1.21.32,1.06.63,2.13.9,3.2.25.44.1,1.09.71,1.33a2.27,2.27,0,0,0,2.61.26A3.85,3.85,0,0,0,131,30.15,10.86,10.86,0,0,1,132.5,28c.55-.53.9-.37,1.11.3a6.18,6.18,0,0,1,.3,2.22.1.1,0,0,0,0,.08l.12,0c.67,1.94,2,2.21,3.41.62a20.89,20.89,0,0,1,5.65-5,.75.75,0,0,0,.54.14l.34,1.94a25.24,25.24,0,0,0,.47,5.42c.07.46.17,1,.79,1.06a2.61,2.61,0,0,0,2.88-.42,19.63,19.63,0,0,1,5-3.14c.33,0,.54.18.76.38a3,3,0,0,1,.14,1.48c-.3,1.32.08,2.65,0,4s1.05,2,2.44,1.72l3-1.44c1-.32,1.75-.93,2.68-1.29,1.11-.43,1.33-.26,1.27.9a22.57,22.57,0,0,0-.14,2.85,6.2,6.2,0,0,0-.09,2.23,1.79,1.79,0,0,0,1.64,1.83h.26c1.11.24,2-.44,3.08-.58.73-.1,1.45-.35,2.17-.52s1.21-.27,1.82-.33c.42-.08.85,0,1.26-.1a1.89,1.89,0,0,1,1,.23.7.7,0,0,1,.07.51c-.17.49-.34,1-.49,1.48a26.68,26.68,0,0,0-1.44,3.34,4,4,0,0,0-.38,2.62c.11.57.26,1.17,1,1.25,1.53.5,2.94-.23,4.41-.38.7-.07,1.4-.19,2.1-.29,2.24-.14,4.48-.46,6.74-.51.39,0,.84-.18,1.11.18s-.06.82-.28,1.18a39.87,39.87,0,0,0-2.31,3.45c-.44.7-.85,1.43-1.34,2.09-1.21,1.62-.84,3.91,1.79,3.67,0,.13,0,.21-.12.25a2.79,2.79,0,0,1-.82,0,4.14,4.14,0,0,0,1.81-.21,2.55,2.55,0,0,0,1.47-.24,80.09,80.09,0,0,1,8.34-.23,21.4,21.4,0,0,0,2.65.25c.23.12.21.32.17.52-1.14,1.52-2.28,3-3.49,4.52a6.91,6.91,0,0,0-1,1.74,2,2,0,0,0,1.89,3,2.57,2.57,0,0,0,.48,0,33.8,33.8,0,0,1,9.46.71,1,1,0,0,0,.47,0c1.4.27,1.4.27.49,1.33-2.06,1.92-4,3.95-6,5.93a1.87,1.87,0,0,0-.47.8l-.65,1a1.35,1.35,0,0,0,.07,1.48c.81,1.49,2.36,1.13,3.63,1.46a3.52,3.52,0,0,0,1.51.16c3.1.54,6.24.89,9.11,2.32-.47,1.19-1.57,1.84-2.38,2.73a63.19,63.19,0,0,0-6.23,5.44c-.2.24-.39.5-.6.73-1.51,1.64-1.19,3,.91,3.81,3.48,1.32,7,2.61,10.46,3.93a5.52,5.52,0,0,1,.72.38.86.86,0,0,1,.14.83,18.13,18.13,0,0,1-1.76,1.85q-2.47,2.28-5.14,4.33a3.25,3.25,0,0,0-.92.89c-.11.11-.22.23-.34.33-2,1.82-1.84,3.07.63,4.23a47.24,47.24,0,0,1,9.84,6.19c0,.26.15.53,0,.78-2,1.73-4.51,2.69-6.71,4.11-.56.37-1.15.71-1.73,1.06-.81.47-.78,1.27-.82,2,0,.16-.05.25,0,.11s.05-.21.17-.24a3.62,3.62,0,0,0,1.88,2,14.06,14.06,0,0,1,2.87,2.09c1.24,1.41,2.79,2.48,4.08,3.84a.87.87,0,0,1-.72.92,64.13,64.13,0,0,0-6.49,3.47,1.82,1.82,0,0,0-.34,3l.83.75c1.34,1.63,3,2.92,4.3,4.63.11.16.28.29.39.45.86,1.2.71,1.71-.68,2.17a36.94,36.94,0,0,0-3.71,1.14l-3.88,1.14c-.59,0-.71.47-.93.84-.44,1.59.62,2.44,1.66,3.29a32.55,32.55,0,0,1,5.07,6.6c.13.44.47.83.24,1.33a4.38,4.38,0,0,1-1.74.65c-.83-.15-1.47.43-2.21.6a10.11,10.11,0,0,0-2.14.7,1.8,1.8,0,0,0-.83,2.53c1.55,2.69,3,5.41,4.45,8.16a.24.24,0,0,1,.07.21,1.24,1.24,0,0,1,0,1c-2.14.23-4.29.05-6.43.1a5.32,5.32,0,0,0-1.54.17,1.77,1.77,0,0,0-1.32,2.09,5.76,5.76,0,0,0,.5,1.72c1.16,2.87,2.49,5.68,3.43,8.64.51,1.63.36,1.87-1.38,1.87-.68,0-1.35,0-2,0s-.9-.29-.62-.92a2.77,2.77,0,0,0,0-1.84,17.44,17.44,0,0,0-3.14-5.81c-.56-.91-1.29-1.69-1.9-2.57a2.84,2.84,0,0,0-1-.8,1.4,1.4,0,0,0-1.77.07,1.51,1.51,0,0,0-.37,1.85,11.2,11.2,0,0,0,1.44,2.17,24.59,24.59,0,0,1,3.05,5c.09.23.13.45-.09.63a16.94,16.94,0,0,1-3.56,0,11.73,11.73,0,0,0-1.78,0c-.91.07-1.41.5-1.41,1.41a1.49,1.49,0,0,0,1.47,1.57,5.74,5.74,0,0,1,1.75.19c-.19.2-.43.13-.91.11.09,0,.24.22.2.07s0,0,.05,0c.64-.07,1.12,0,1.09.83a2,2,0,0,0,.47,1.2,57.66,57.66,0,0,1,3.4,5.71c.1.26.23.5.35.75.34.72.18,1.19-.63,1.38a37.89,37.89,0,0,1-5.42-.58,1.45,1.45,0,0,1-1.32-1.3,4.27,4.27,0,0,0-.77-2,1.25,1.25,0,0,0-1.46-.52,1.17,1.17,0,0,0-.9,1.25c0,.91.16,1.81.25,2.72a23,23,0,0,0,.35,4.3c0,.66.14,1.32.25,2s0,1.28,0,1.91-.3.81-.83.85a20,20,0,0,1-3.68-1.68c-2-1-2.95-.59-3.56,1.62a54.16,54.16,0,0,1-1.62,5.73,4,4,0,0,1-.7,1.37,5.51,5.51,0,0,0-.76.4,21.15,21.15,0,0,1-5-3.54c0-.52.09-1,.11-1.55a1.85,1.85,0,0,0,.23-1.24c0-.16-.07-.24,0-.08Z"/><path class="cls-4" d="M31,125.77a21,21,0,0,1-4.45-2.85c0-.21.16-.35.22-.54a24,24,0,0,1,5.42-2.69l.45-.16c3.19-1.15,3.42-2.09,1.09-4.55-1.42-1.44-3.26-2.32-4.78-3.61a28.56,28.56,0,0,1-2.49-2.18c-.43-.73-.06-1.07.62-1.29a14.32,14.32,0,0,0,3-1.09,25.69,25.69,0,0,1,3.86-.89,3.27,3.27,0,0,0,2.84-2.27l.09.06c0,.16,0,.24,0,.09a2.22,2.22,0,0,0-.38-1.5,42.09,42.09,0,0,0-2.9-3.88,51.82,51.82,0,0,1-3.26-5.14,1.53,1.53,0,0,1-.17-.55c0-.16.11-.32.26-.34s.17-.1.06-.2a20.68,20.68,0,0,1,7.52.33,2.36,2.36,0,0,0,2.6-.54c.65-.58.48-1.26.24-1.94s-.64-1.15-.9-1.76a9.19,9.19,0,0,0-1-1.77,29.74,29.74,0,0,1-2.52-6.29c.19-.45-.28-1.08.4-1.38a11.46,11.46,0,0,1,3.3.27,3.69,3.69,0,0,1,3.52,3,16.55,16.55,0,0,0,.86,2.21,18.24,18.24,0,0,0,3.68,5.83c.39.49.18.93-.06,1.42A60.17,60.17,0,0,0,45.06,99a26.77,26.77,0,0,0-1.53,5.2h0a10.16,10.16,0,0,0-.67,2.41,14.79,14.79,0,0,0-.61,3.8,1,1,0,0,1-.16.78c-.32.24-.22.63-.24.92a6,6,0,0,1-2.07,4A38.88,38.88,0,0,0,35,121.44a8.49,8.49,0,0,0-1.5,2c-.77.7-1,1.85-1.83,2.48C31.41,126,31.2,125.82,31,125.77Z"/><path class="cls-2" d="M43,181.34a16.48,16.48,0,0,1,2.63-9.77c1.73-2.57,4-4.2,7.26-4a4.79,4.79,0,0,1,4.37,6.26,9.5,9.5,0,0,0-.36,4.4c.37,2.66-1.24,4.49-3.22,6a13.71,13.71,0,0,1-2.12,1.33A2.75,2.75,0,0,0,50,188.29c0,1.16.1,2.31.12,3.46,0,.43.41,1.05-.26,1.24s-1.4.92-2.28.12a14,14,0,0,1-3.53-5.86A15.81,15.81,0,0,1,43,181.34Z"/><path class="cls-5" d="M54.32,194.7a30.72,30.72,0,0,0,2.12,7.78,45.74,45.74,0,0,0,5.81,10.63c1.23,1.69,2.7,3.21,4.06,4.8-.08.13-.18.13-.29,0a37.8,37.8,0,0,1-8.15-11.23,44.07,44.07,0,0,1-4.71-16.89,1.56,1.56,0,0,1,1-1.84A17.08,17.08,0,0,0,56,187a.18.18,0,0,1,.31.06c-.06.72-.62.95-1.18,1.16-1.21.47-1.41.82-1.29,2.14S54.19,193.26,54.32,194.7Z"/><path class="cls-6" d="M102.93,164.53c-4.21-4.84-9.82-6.87-15.91-7.9a33.12,33.12,0,0,0-13.08.35,9.1,9.1,0,0,1-1.17.13.62.62,0,0,1-.79,0A32.2,32.2,0,0,1,85,156,32.74,32.74,0,0,1,94,158c3.49,1.41,6.82,3.13,9.15,6.26C103.27,164.54,103.15,164.58,102.93,164.53Z"/><path class="cls-7" d="M72,157.07l.79,0c-1.22.45-2.46.85-3.66,1.35a29.47,29.47,0,0,0-9.68,6.35c-1.36,1.35-1.36,1.35.16,2.59a3.79,3.79,0,0,1,1.21,2.48.63.63,0,0,1-.29.48,10,10,0,0,0-2.38-3.79c-.58-.52-.22-.91.16-1.3a30.86,30.86,0,0,1,11.1-7.41A8.64,8.64,0,0,1,72,157.07Z"/><path class="cls-8" d="M60.51,170.36l0-.58c1,.86.68,2.06.88,3.13a2.36,2.36,0,0,1-.07.83,16.56,16.56,0,0,0-.27,5.07,6,6,0,0,1-1.51,4.63h0a13.65,13.65,0,0,1-2.37,3.23c-.25.24-.48.71-1,.37L56,187a15.16,15.16,0,0,0,3.74-5.18,7,7,0,0,0,.43-4.77,2,2,0,0,1,0-1.18A10.82,10.82,0,0,0,60.51,170.36Z"/><path class="cls-9" d="M93.59,226.3a22.79,22.79,0,0,0,9-5.49,23.16,23.16,0,0,0,4-5.61c.13-.26.21-.51.49-.63.08-.12.15-.12.22,0a21.19,21.19,0,0,1-13.3,12C93.62,226.7,93.55,226.56,93.59,226.3Z"/><path class="cls-10" d="M108,195.22a.47.47,0,0,1-.64.09c-3.71-2.13-7-4.64-8.7-8.8-.64-1.59-1.37-3.22-.46-5,.06-.11.14-.12.22,0a6.13,6.13,0,0,0,.2,3.83c1.48,4.28,4.62,7,8.36,9.26Z"/><path class="cls-11" d="M107.21,214.57H107c.51-2,1.48-3.84,1.91-5.86a59.92,59.92,0,0,0,1.46-11.86c.46-.13.27.33.43.48C110.46,203.25,109.82,209.11,107.21,214.57Z"/><path class="cls-12" d="M66,217.94l.29,0c1.28.61,2.1,1.79,3.22,2.61a42.52,42.52,0,0,0,8.74,4.81.23.23,0,0,1,0,.35A31.23,31.23,0,0,1,66,217.94Z"/><path class="cls-13" d="M93.59,226.3l.32.27c-3.27,1.26-6.62,1.12-10,.59a15,15,0,0,1-4.25-1.06c.94-.34,1.79.16,2.65.34A23.48,23.48,0,0,0,93.59,226.3Z"/><path class="cls-14" d="M98.36,176c-.2-3.2,3.58-7.51,6.7-8.13a.19.19,0,0,1,.31,0,12.22,12.22,0,0,1-2.24,1.3,9.16,9.16,0,0,0-4.52,8.14l0,1.55q-.24.11-.3-.15A14,14,0,0,1,98.36,176Z"/><path class="cls-15" d="M105.37,167.9l-.31,0a16.18,16.18,0,0,0-2.13-3.34l.24-.24a18,18,0,0,1,2,2.86C105.34,167.32,105.73,167.58,105.37,167.9Z"/><path class="cls-16" d="M98.38,178.9h.2a3.82,3.82,0,0,1-.21,2.62l-.22,0c.07-.64.15-1.28.22-1.91A.62.62,0,0,1,98.38,178.9Z"/><path class="cls-17" d="M78.23,225.68l0-.35c.54.13,1.23,0,1.4.77A2.84,2.84,0,0,1,78.23,225.68Z"/><path class="cls-18" d="M110.79,197.33l-.43-.48c0-.2-.56-.19-.17-.51C110.85,196.39,111,196.77,110.79,197.33Z"/><path class="cls-19" d="M133.73,130.2a17.45,17.45,0,0,1,8.63,2.2c5.66,3,9,9.95,8.08,16.28-1.18,8.43-8.15,14-15.69,15.13-6.9,1-13.14-.54-18.26-5.5a14.88,14.88,0,0,1-2.84-17.11C117.41,133.3,124,130.17,133.73,130.2Z"/><path class="cls-19" d="M62.25,139.38c4.3,8.83-1.53,19.33-11.27,20.67-7.52,1-17.17-4.26-18.35-13.67-1-8.31,3.91-15.52,12.27-16.84a15.47,15.47,0,0,1,7.87.68,3.16,3.16,0,0,1,1.32.78,3.92,3.92,0,0,1,.53,1.8,7.85,7.85,0,0,0,2.49,4.51,5.28,5.28,0,0,0,3.23,1.38C61,138.73,61.81,138.62,62.25,139.38Z"/><path class="cls-19" d="M144.45,79.43c0-4.37,2.84-8.88,6.44-10.22,4.14-1.54,7.33.54,8.91,3.59,2.34,4.52-.2,11.19-3.88,13.32a7.3,7.3,0,0,1-7.63.12A7.15,7.15,0,0,1,144.45,79.43Z"/><path class="cls-1" d="M79.9,140.66c.41-1.5-.13-2.83-1.92-3.71a6.37,6.37,0,0,1-1.83-1.69c-1.7-2-1.46-4.53.77-5.87a11.49,11.49,0,0,1,11.32-.47c2.63,1.25,2.94,3.36,1.22,5.72a8.45,8.45,0,0,1-4.57,3.09,1.37,1.37,0,0,0-1.15,1.69c.09,1,0,1.92,0,2.87a2.25,2.25,0,0,0,2.78,2.46,3.9,3.9,0,0,0,3.18-1.84,2,2,0,0,1,1.59-1.13,1.9,1.9,0,0,1,1.73.88,1.83,1.83,0,0,1,0,2,7.34,7.34,0,0,1-4.91,3.5,7.55,7.55,0,0,1-5.55-.74,1.22,1.22,0,0,0-1.37,0,6.33,6.33,0,0,1-7.61-1,4.12,4.12,0,0,1-1.3-3.09,1.55,1.55,0,0,1,1-1.63,1.73,1.73,0,0,1,2,.55,3.83,3.83,0,0,1,.7,1.09c.56,1.52,2.48,1.37,3.58.59a.85.85,0,0,0,.34-.82C79.88,142.44,79.9,141.72,79.9,140.66Z"/><path class="cls-1" d="M117,129.58c-.08,2.74-.49,5.06-2,7.07-2.52,3.45-6.34,3.54-9,.2-3-3.69-3.21-10.34-.56-14.26,2.31-3.42,6.3-3.63,9-.45A12,12,0,0,1,117,129.58Z"/><path class="cls-1" d="M54.51,129.37c.29-2.93.94-5.73,3.08-7.93a5.1,5.1,0,0,1,8.08.5,9.92,9.92,0,0,1,1.77,4.11,13.36,13.36,0,0,1-.58,7.27A7.74,7.74,0,0,1,62,138.48a3.91,3.91,0,0,1-3.92-.43,7.7,7.7,0,0,1-3.49-5.16A11.24,11.24,0,0,1,54.51,129.37Z"/><path class="cls-20" d="M54.51,129.37a12.12,12.12,0,0,0,.91,5.35A5.92,5.92,0,0,0,62,138.48l.27.9c-.46-.49-1.14-.38-1.65-.38-2.6,0-4.17-1.53-5.35-3.56A9.24,9.24,0,0,1,54.09,131C54.59,130.55,54.06,129.83,54.51,129.37Z"/><path class="cls-21" d="M179.83,106.38a18.31,18.31,0,0,0,3-2.89c.82-1,.74-1.29-.41-1.89-2.47-1.29-5.23-1.66-7.86-2.41-.92-.27-1.86-.49-2.76-.8-.71-.24-1.33-.66-1.13-1.57a1.34,1.34,0,0,1,1.63-1,37.73,37.73,0,0,1,8.25,1.91l1.6.47a7.63,7.63,0,0,1,3.87,2c1.22,1,1.23,2.9.13,4.44a2.82,2.82,0,0,1-.71.79h0a2.3,2.3,0,0,1-.67.85c-.44.52-1,1-1.45,1.46a48.23,48.23,0,0,1-5.5,4.48c-.5.32-1,.66-1.49,1a1.4,1.4,0,0,1-1.85-.26,1.36,1.36,0,0,1,.06-1.76c.49-.8,1.37-1.19,2-1.81a14.46,14.46,0,0,0,1.94-1.73A3,3,0,0,1,179.83,106.38Z"/><path class="cls-21" d="M193.18,101.59a1.81,1.81,0,0,1,2.31-1,35.68,35.68,0,0,1,8.28,3.29c3.71,2.17,4,5.07.75,7.94l-1.07.93a24.43,24.43,0,0,1-5.67,3.52,5.82,5.82,0,0,1-2.46,1.06,2.86,2.86,0,0,1-1.63-.21c-.94-.62-.8-1.83.33-2.51,2-1.2,4-2.34,5.95-3.55a20.42,20.42,0,0,0,2.63-1.86c1-.82.94-1.33-.07-2.1a20.71,20.71,0,0,0-6.51-2.9,5.2,5.2,0,0,1-2.1-.72C193.22,103.09,192.73,102.5,193.18,101.59Z"/><path class="cls-22" d="M185.23,85.76c.08-1.41.6-2.05,1.87-1.87a75.33,75.33,0,0,1,10,1.55,12.9,12.9,0,0,1,1.24.42q4.35,1.76,1.93,5.78c-.33.54-.75,1-1.12,1.54a6.87,6.87,0,0,1-2.23,2.35v0a7.55,7.55,0,0,1-1.91,1.7h0a12.71,12.71,0,0,1-3.57,2.35,1.64,1.64,0,0,1-2.11-.44l0,0a1.78,1.78,0,0,1,.79-2.43,42.51,42.51,0,0,0,6-4.94,6.74,6.74,0,0,0,.84-1c1.1-1.55,1.12-1.57-.71-2.21a22.87,22.87,0,0,0-5.13-1,28,28,0,0,1-4.89-.94C185.82,86.48,185.24,86.41,185.23,85.76Z"/><path class="cls-22" d="M199.16,136.32c-.46.13-.91.3-1.37.39-.87.17-1.65,0-1.94-.93s.32-1.4,1.07-1.73c1.45-.64,2.92-1.23,4.36-1.9a13.35,13.35,0,0,0,3.17-1.83c.69-.5.83-1.06.23-1.72a24.87,24.87,0,0,0-3.87-2.82,1.91,1.91,0,0,1-1.19-.77c-1-.69-1.94-1.37-2.9-2.08-.67-.48-1.32-1.06-.81-2s1.27-.78,2.08-.39a41.43,41.43,0,0,1,8.84,5.63c2.84,2.37,2.47,5-.76,6.88-1.93,1.12-4,2-6,2.93C199.81,136.24,199.55,136.48,199.16,136.32Z"/><path class="cls-23" d="M185.23,151.27c2,.14,3.64,1.32,5.29,2.35a21.71,21.71,0,0,1,4.54,3.86c2,2.25,1.64,4.31-1.06,5.65a35.65,35.65,0,0,1-9.84,2.82c-1,.17-2.2.34-2.49-.95s1-1.52,1.93-1.79c2.43-.75,4.94-1.25,7.34-2.13a8.14,8.14,0,0,0,1.09-.47c.77-.42,1-.89.27-1.64-1.83-1.94-4.14-3.23-6.3-4.72-.84-.58-1.84-1.09-1.5-2.42C184.51,151.34,184.81,151.23,185.23,151.27Z"/><path class="cls-24" d="M62.94,56.68c-1.25-1.73-1.48-3.8-1.94-5.8-.11-.5-.19-1-.28-1.52a9.91,9.91,0,0,1,.09-4.78,2.09,2.09,0,0,1,1.35-1.52,4.84,4.84,0,0,1,4.28,0,32.15,32.15,0,0,1,7.24,3.88,5.41,5.41,0,0,1,.95.9,1.39,1.39,0,0,1,0,1.87,1.36,1.36,0,0,1-1.92.3,33.19,33.19,0,0,0-4.35-2.26c-1-.3-1.88-1-2.89-1.33-1.22-.4-1.41-.28-1.4,1a25.23,25.23,0,0,0,1,7l.37,1a.55.55,0,0,1,0,.83l-.68.54a1,1,0,0,1-.94.22Z"/><path class="cls-22" d="M187.42,72.41a36.81,36.81,0,0,0-6.86-.8c-1.62-.06-2.39-.53-2.35-1.44s.8-1.37,2.4-1.39c.67,0,1.35,0,2-.08a16.67,16.67,0,0,1,6.25.57,3.14,3.14,0,0,1,2.36,4.22,12.46,12.46,0,0,1-3.83,6.05c-1.26,1.3-2.55,2.57-3.79,3.89a1.94,1.94,0,0,1-2.21.68c-.93-.73-1-1.15-.43-2.16,2.23-2.47,4.83-4.61,6.45-7.6.09-.18.16-.36.24-.54C187.71,73.32,188.19,72.75,187.42,72.41Z"/><path class="cls-21" d="M208.21,147.77a20.66,20.66,0,0,0-7.65-5.44c-.81-.29-1.2-.8-.9-1.69a1.59,1.59,0,0,1,2.19-.82,25.24,25.24,0,0,1,7,3.94c.32.23.64.46.95.7,2.93,1.77,3,5.1.18,6.91a6.51,6.51,0,0,1-2.71,1.17A28.06,28.06,0,0,1,201,154a2.13,2.13,0,0,1-1.87-.55c-.28-.33-.58-.66-.21-1.11.64-1,1.72-1.19,2.75-1.47a26.67,26.67,0,0,0,6.53-2.4A3,3,0,0,0,208.21,147.77Z"/><path class="cls-22" d="M189,139.64a24.43,24.43,0,0,0-6.81-4.89c-.38-.21-.77-.41-1.13-.65a1.31,1.31,0,0,1-.58-1.66c.26-.67.86-.75,1.5-.66.35.05.69.14,1,.22a15.73,15.73,0,0,1,5.07,2.91c1,.75,2,1.44,2.92,2.25,2.42,2.16,2.3,4.41-.43,6.12a48.77,48.77,0,0,1-8.46,4.38A5.78,5.78,0,0,1,181,148c-.63.11-1.21,0-1.49-.65a1.2,1.2,0,0,1,.6-1.62c1.07-.61,2.19-1.15,3.29-1.71a63.62,63.62,0,0,0,5.75-3.38C189.33,140.27,189,140,189,139.64Z"/><path class="cls-23" d="M188.36,124.54l-5.27,3.11a11.69,11.69,0,0,1-3.86,1.51,2.76,2.76,0,0,1-1.31,0,1.49,1.49,0,0,1-1.14-1.24,1.14,1.14,0,0,1,.73-1.35c1.78-.78,3.51-1.65,5.34-2.32a13.25,13.25,0,0,0,3.38-2.09.64.64,0,0,1,.29-.37c.81-.51.71-1,0-1.59-.36-.31-.7-.64-1-1h0a3.53,3.53,0,0,1-1.5-1.15,29.87,29.87,0,0,0-3.38-2.17,2.09,2.09,0,0,1-1.21-2.12.16.16,0,0,1,.09-.23,2.07,2.07,0,0,1,2.54-.14,40,40,0,0,1,6.57,4.28,6.41,6.41,0,0,1,2.07,2.84C191,122.07,190.13,123.59,188.36,124.54Z"/><path class="cls-21" d="M124.71,56.78,123.5,61.1c-.09,1.09-.86,1.39-1.75,1.34a1.25,1.25,0,0,1-1.27-1.53c0-.32,0-.64,0-1a13.86,13.86,0,0,0,.5-2.21c.34-1.36.42-2.75.68-4.12a12.71,12.71,0,0,1,.11-1.84c0-.49,0-1-.71-.92a26.41,26.41,0,0,0-6,3.72,1.73,1.73,0,0,1-2.18.27c-.67-.94-.63-1.38.22-2.4a4.25,4.25,0,0,0,1.18-1,17,17,0,0,1,6-4c1.44-.32,2.88-.61,4,.69a2.2,2.2,0,0,1,.92,2.08A17.27,17.27,0,0,1,124.71,56.78Z"/><path class="cls-25" d="M141,47.72c-1,.46-1.6-.07-2.12-.82a5.05,5.05,0,0,1-.15-2,17.5,17.5,0,0,0,.47-3.75,17.51,17.51,0,0,0,.24-1.75c0-.31,0-.62-.5-.53-1.79,1-3.43,2.27-5.12,3.43a1.71,1.71,0,0,1-.72.4c-.42.3-.83.61-1.27.89a1.79,1.79,0,0,1-2.31,0c-.67-.94-.1-1.66.51-2.26a53.63,53.63,0,0,1,4.68-4c.7-.33,1.14-1.08,2-1.21.79-.45,1.56-.93,2.36-1.35a3.12,3.12,0,0,1,2-.1c1.73.16,2.31,1.81,2.21,3.63a32.87,32.87,0,0,1-1.26,8C141.77,46.9,141.71,47.57,141,47.72Z"/><path class="cls-26" d="M127.55,44.08a1.6,1.6,0,0,1-2.12-.28c-.34-.27-.34-.67-.42-1.06-.35-1.79-.67-3.58-1.16-5.33-.14-.48,0-1.22-.51-1.36s-.83.59-1.23.94-.51.9-1,1.13c-1.21,1.36-2.13,2.93-3.19,4.39-.62.86-1.33,1.22-2.32.63a1.87,1.87,0,0,1-.14-2.32,20.5,20.5,0,0,1,3.5-5.35c1.17-1.3,2-2.88,3.58-3.83a2.49,2.49,0,0,1,3.47.91A15.38,15.38,0,0,1,127,35.2a33.62,33.62,0,0,1,.86,3.73c-.08.93.3,1.82.26,2.75S128.39,43.44,127.55,44.08Z"/><path class="cls-27" d="M182.64,169.83c.43-.38.73-.91,1.37-1a12.14,12.14,0,0,1,5.51,3.6,15.91,15.91,0,0,1,2.35,2.69,4.44,4.44,0,0,1,.47,4c-.1.28-.13.6-.48.7-1.62,1.15-3.54,1.35-5.4,1.71-.27.05-.53.13-.8.2a16.79,16.79,0,0,1-4.9.25c-.31-.06-.63-.11-.93-.2-.75-.23-1.43-.6-1.53-1.47-.13-1.06.76-1.26,1.47-1.59,1.17-.44,2.4,0,3.58-.23.44-.13.92,0,1.36-.14a21.41,21.41,0,0,0,3.2-.31c1.3-.19,1.4-.5.72-1.62s-1.87-1.94-2.67-3l-3.24-2.66C182.37,170.46,182.48,170.14,182.64,169.83Z"/><path class="cls-24" d="M98.11,60.4a4.52,4.52,0,0,0-1.24,1.54c-.57,1.25-1.4,2.35-2,3.57-.57,1-.77,2.15-1.31,3.15-.28.53-.42,1.22-1.18,1.35h-1c-.55-.21-.55-.68-.58-1.15a6.61,6.61,0,0,1,.71-3.09,19.62,19.62,0,0,1,3.39-6.6,6.7,6.7,0,0,1,2-2c.36-.2.68-.56,1.16-.37l.76,0a2.21,2.21,0,0,1,1.92.72,11.18,11.18,0,0,1,2.48,3,25.61,25.61,0,0,1,2.68,5.52,2.05,2.05,0,0,1,0,1.81c-1.15,1.18-1.85,1.08-2.59-.37-.14-.28-.31-.54-.46-.81C101.8,64.9,101,63,100,61.34a2.76,2.76,0,0,0-.88-1A.76.76,0,0,0,98.11,60.4Z"/><path class="cls-24" d="M109.2,46.23,110.5,49a1,1,0,0,1,.34.88l.18.5a2.38,2.38,0,0,1,.24,2.37c-.32.44-.59.92-1.2,1s-1.11-.24-1.39-.83a21.19,21.19,0,0,1-.8-2,34,34,0,0,0-3.57-6.33c-.72.1-.79.77-1.11,1.23-.42,1.36-1.31,2.51-1.84,3.82-.12.3-.12.67-.41.9a7.86,7.86,0,0,0-.72,1.87c-.32.73-.66,1.56-1.62,1.48s-1-1-1.09-1.82A11.48,11.48,0,0,1,98.67,48a39.17,39.17,0,0,1,1.77-3.84c.19-.37.34-.81.8-1,.39-.44.78-.89,1.19-1.31a2.41,2.41,0,0,1,3.76-.08,18.83,18.83,0,0,1,1.5,1.82A7,7,0,0,1,109.2,46.23Z"/><path class="cls-28" d="M85.64,59.5a2.08,2.08,0,0,1-1.87-1.9,21.32,21.32,0,0,1,.09-9.6,7.46,7.46,0,0,1,.26-.8c1-2.59,2.52-3.17,5-1.83a16.7,16.7,0,0,1,6.45,6.57c.42.73.65,1.55-.23,2.12s-1.44,0-1.93-.63a22.59,22.59,0,0,0-4.87-4.89c-.34-.23-.63-.68-1.15-.42A3.44,3.44,0,0,0,86.73,50a22.87,22.87,0,0,0,0,7.43C86.93,58.72,86.59,59.24,85.64,59.5Z"/><path class="cls-29" d="M205.86,175.09a29.8,29.8,0,0,1-8,2.35,2.88,2.88,0,0,1-.83,0,1.4,1.4,0,0,1-.6-2.64,16.38,16.38,0,0,1,3.68-1c1-.26,2-.55,3-.79s1-.73.47-1.46a17.76,17.76,0,0,0-4-4.07,11.71,11.71,0,0,1-1.36-1.16,1.19,1.19,0,0,1-.11-1.55,1.11,1.11,0,0,1,1.36-.48,5.32,5.32,0,0,1,1.51.69c2.57,1.82,4.85,3.9,6.07,6.9C207.34,173.73,207.06,174.47,205.86,175.09Z"/><path class="cls-24" d="M181.64,185.53c1-.54,1.6.26,2.36.57s1.32,1.21,2,1.8a2.33,2.33,0,0,1,.67.85v0a11,11,0,0,1,2.55,4.21,2.73,2.73,0,0,1-2,3.72,28.78,28.78,0,0,1-7.78.93,3.1,3.1,0,0,1-1.81-.5c-.54-.4-.42-.9-.23-1.42a2.11,2.11,0,0,1,2-1,30.76,30.76,0,0,0,6.13-.51c.51-.23.47-.61.26-1a20.64,20.64,0,0,0-4.22-5.4C180.72,186.92,180.79,186.19,181.64,185.53Z"/><path class="cls-30" d="M179.78,202.41c.39-.63.82-1.18,1.69-1.07s1.08.84,1.33,1.5a5.28,5.28,0,0,0,.52,1.44,13.73,13.73,0,0,1,1.09,5.33,1.8,1.8,0,0,1-.6,1.6c-1.12,1.31-2.65.95-4.07,1-.16.09-.31.11-.43-.05a2.07,2.07,0,0,0-1.25-.19.66.66,0,0,1-.55,0,19.21,19.21,0,0,1-3.08-.75c-1.19-.53-1.35-.81-1.2-2.19.62-1,1.57-.93,2.53-.73,1.44.29,2.87.55,4.33.71.61.06.91-.1.77-.79a22.7,22.7,0,0,0-.71-3.25C180.16,204.11,179.32,203.35,179.78,202.41Z"/><path class="cls-19" d="M151.88,219.07a27.31,27.31,0,0,1-5.43,15c-1.79,2.28-3.91,4.07-7.08,4a6.87,6.87,0,0,1-6.77-5,18.61,18.61,0,0,1-.23-9.2c.7-3.89,1.83-7.6,4.35-10.72,1.54-1.91,3.28-3.52,5.94-3.87a8.42,8.42,0,0,1,8.64,5.37A15.33,15.33,0,0,1,151.88,219.07Z"/><path class="cls-19" d="M29.43,220.31a42.75,42.75,0,0,1-2.81-6.3,11.19,11.19,0,0,1-.1-6.68,2.62,2.62,0,0,1,3.12-1,9.35,9.35,0,0,1,5.11,3.74,38.55,38.55,0,0,1,7.68,17.39,4.13,4.13,0,0,1-1.29,3.88,3,3,0,0,1-2-.68,26.26,26.26,0,0,1-6.46-5.85C31.54,223.33,30.6,221.74,29.43,220.31Z"/><path class="cls-31" d="M59.58,183.44a2.06,2.06,0,0,1,.16-.68,5.79,5.79,0,0,0,1-4.3c-.4-2,.29-3.74.35-5.62a5,5,0,0,0-.54-3.06c.07-.95-.76-1.53-1-2.38a3.88,3.88,0,0,1,1.64,2.74c.09.54-.35,1.85,1.14,1.64.25,0,.57.47,1,.86a17.83,17.83,0,0,0,.09-1.83c0-.69.28-1,.91-1,.44.62.09,1.23-.09,1.81a45.17,45.17,0,0,0-1.91,8.8,23.83,23.83,0,0,0,0,5.47c0,.38.25.76,0,1.16a.62.62,0,0,1-.78-.66,1.18,1.18,0,0,0-.6-1.11c-.65-.45.61-.81.23-1.45C60.65,184.35,60.16,183.72,59.58,183.44Z"/><path class="cls-32" d="M62.46,187c-.85-2.28-.5-4.62-.35-6.94.24-3.54,1.53-6.87,2.27-10.3h0a4.86,4.86,0,0,1,2.48-2.43,1.7,1.7,0,0,1,2.07.27c1.39,1.48,1.25,3.25.91,5-.74,3.85-1,7.75-1.41,11.64a18.14,18.14,0,0,1-.71,4.32,1.85,1.85,0,0,1-1.42,1.28,3,3,0,0,1-1.77-.08,3.8,3.8,0,0,1-2.06-2.56C62.47,187.19,62.46,187.12,62.46,187Z"/><path class="cls-31" d="M56.24,187c1.22-.4,1.66-1.57,2.41-2.43.33-.38.45-.92.94-1.17A5.08,5.08,0,0,1,58,186.18c-.43.38-1,.8-1,1.4,0,1.15-1.27,1.2-1.6,1.13-1.19-.24-1.39.53-1.39,1.22a11.67,11.67,0,0,0,.47,3.49c.19.56-.11.86-.1,1.28a19.25,19.25,0,0,1-.71-5.34c0-.71.59-.87,1-1.15S55.92,187.72,56.24,187Z"/><path class="cls-31" d="M68.93,167.64a3.31,3.31,0,0,0-4,1.64c-.14.24-.18.51-.53.52,0-.69.94-1.29.15-2.09-.16-.15.44-.14.56-.39,1,.72,1.66-.26,2.48-.44S68.77,166.87,68.93,167.64Z"/><path class="cls-31" d="M62.47,187.27c.64.87,1.09,1.91,2.15,2.4l-.09.12a3.12,3.12,0,0,1-.49.31l-.14.05c-.22-.21-.91,0-.65-.67.15-.42-.2-.61-.45-.87S62.11,187.83,62.47,187.27Z"/><path class="cls-31" d="M64.62,189.67l1.68.24c-.53.36-1.24.29-1.75.79-.27.25-.75,0-.65-.55.19-.24.5-.28.72-.48Z"/><path class="cls-33" d="M98.38,178.9v.72a6,6,0,0,1,0-3.62C98.37,177,98.37,177.93,98.38,178.9Z"/><path class="cls-31" d="M59.86,184.68l-.17.27c-.07-.08-.22-.18-.2-.23a2.05,2.05,0,0,1,.24-.36Z"/><path class="cls-34" d="M99,16.24c0-.4,0-.8,0-1.2a3.33,3.33,0,0,1,1.75-3.51,4.82,4.82,0,0,1,4.68.14,2,2,0,0,1,.92,1.74c.16,2.67.77,5.32.38,8-.14,1,.23,1.95.19,2.95a2.65,2.65,0,0,1-.43,1.59c-1,1.39-1.81,3-3,4.3-.33.37-.49.4-.81,0a10.89,10.89,0,0,0-2.65-2.81c-.6-.39-.54-1.25-.55-1.87C99.45,22.47,98.91,19.37,99,16.24Z"/><path class="cls-35" d="M69.45,171.26c-.4,3.52-1.1,7-1.37,10.53-.14,1.86-.3,3.73-.51,5.58-.09.85-.31,1.7-1.31,1.94a2.53,2.53,0,0,1-2.53-1,5.26,5.26,0,0,1-1.17-2.84,16.1,16.1,0,0,1,.11-5.45c.33.24.33.6.37.95,0,1.12,0,2.23,0,3.34a4.86,4.86,0,0,0,1.5,3.65c1.11,1,2,.68,2.33-.73a17,17,0,0,0,.43-3.67c.12-3.27.66-6.48,1.07-9.71a4,4,0,0,1,.87-2.65Z"/><path class="cls-36" d="M62.73,181.08,62.67,180a38.85,38.85,0,0,1,2.23-9.63,5,5,0,0,1,1.25-1.88,1.72,1.72,0,0,1,2.81.25.25.25,0,0,1,0,.34c-2-.57-2.79-.15-3.52,1.91a45.69,45.69,0,0,0-2.17,9C63.21,180.42,63.34,180.94,62.73,181.08Z"/><path class="cls-35" d="M68.92,169.09l0-.33a2.26,2.26,0,0,1,.49,2.5l-.1-.06A2.6,2.6,0,0,1,68.92,169.09Z"/><path class="cls-3" d="M64.62,189.67a.72.72,0,0,1-.72.48C63.92,189.66,64.27,189.66,64.62,189.67Z"/><path class="cls-2" d="M68.92,169.09a9,9,0,0,1,.43,2.11,29,29,0,0,0-1.13,6.4c-.38,3.18-.63,6.37-1,9.55-.07.7-.14,1.49-1,1.75a2,2,0,0,1-2-.72,5.1,5.1,0,0,1-1.5-3.76c-.06-1.12,0-2.23,0-3.34a61.47,61.47,0,0,1,1.68-8,9.62,9.62,0,0,1,1.74-4A1.61,1.61,0,0,1,68.92,169.09Z"/><path class="cls-2" d="M44.63,74.84l9.49,6.66-4,5.63C46.73,83.7,45.41,79.41,44.63,74.84Z"/></svg>