<?xml version="1.0" encoding="utf-8"?>
<!-- Generator: Adobe Illustrator 24.1.1, SVG Export Plug-In . SVG Version: 6.00 Build 0)  -->
<svg version="1.1" id="Layer_1" xmlns="http://www.w3.org/2000/svg" xmlns:xlink="http://www.w3.org/1999/xlink" x="0px" y="0px"
	 viewBox="0 0 1024 1024" style="enable-background:new 0 0 1024 1024;" xml:space="preserve">
<style type="text/css">
	.st0{fill:#74c365;}
	.st1{fill:#a3d977;}
</style>
	<path class="st0" d="M507.4,638.4c184.5,0,334.7,150.2,334.7,334.7h61.7c0-218.5-177.8-396.4-396.4-396.4S111,754.6,111,973.2h61.7
	C172.6,788.6,322.7,638.4,507.4,638.4z"/>
	<path class="st0" d="M842.1,973.2c0,17,13.8,30.8,30.8,30.8s30.8-13.8,30.8-30.8l0,0c0-17-13.8-30.8-30.8-30.8
	S842.1,956.1,842.1,973.2L842.1,973.2z"/>
	<path class="st1" d="M389.8,537.8c95.2,95.3,249.6,95.3,344.9,0.1C830,442.7,830,288.2,734.8,193c0,0,0,0-0.1-0.1
	c-95.2-95.3-249.6-95.3-344.9-0.1S294.5,442.5,389.8,537.8L389.8,537.8z"/>
	<path class="st0" d="M507.4,638.4c-168.5,0-305.5-137.1-305.5-305.6s137-305.5,305.5-305.5S813,164.4,813,332.9
	S675.8,638.4,507.4,638.4z M507.4,89c-134.7,0-243.9,109.2-243.9,243.9s109.2,243.9,243.9,243.9s243.9-109.2,243.9-243.9l0,0
	C751.1,198.2,642,89.1,507.4,89z"/>
</svg>
